<mxfile host="65bd71144e">
    <diagram id="N6uib-WTAvQgqnyQ_uLX" name="Page-1">
        <mxGraphModel dx="699" dy="1594" grid="1" gridSize="10" guides="1" tooltips="1" connect="1" arrows="1" fold="1" page="1" pageScale="1" pageWidth="850" pageHeight="1100" background="#ffffff" math="0" shadow="0">
            <root>
                <mxCell id="0"/>
                <mxCell id="1" parent="0"/>
                <mxCell id="102" style="edgeStyle=none;html=1;endArrow=none;endFill=0;exitX=0.5;exitY=1;exitDx=0;exitDy=0;" edge="1" parent="1" source="103" target="92">
                    <mxGeometry relative="1" as="geometry"/>
                </mxCell>
                <mxCell id="31" value="" style="shape=table;startSize=0;container=1;collapsible=0;childLayout=tableLayout;" parent="1" vertex="1">
                    <mxGeometry x="355" y="-800" width="220" height="920" as="geometry"/>
                </mxCell>
                <mxCell id="32" value="" style="shape=tableRow;horizontal=0;startSize=0;swimlaneHead=0;swimlaneBody=0;top=0;left=0;bottom=0;right=0;collapsible=0;dropTarget=0;fillColor=none;points=[[0,0.5],[1,0.5]];portConstraint=eastwest;" parent="31" vertex="1">
                    <mxGeometry width="220" height="184" as="geometry"/>
                </mxCell>
                <mxCell id="33" value="&lt;b&gt;Individual&lt;/b&gt;" style="shape=partialRectangle;html=1;whiteSpace=wrap;connectable=0;overflow=hidden;fillColor=none;top=0;left=0;bottom=0;right=0;pointerEvents=1;" parent="32" vertex="1">
                    <mxGeometry width="220" height="184" as="geometry">
                        <mxRectangle width="220" height="184" as="alternateBounds"/>
                    </mxGeometry>
                </mxCell>
                <mxCell id="34" value="" style="shape=tableRow;horizontal=0;startSize=0;swimlaneHead=0;swimlaneBody=0;top=0;left=0;bottom=0;right=0;collapsible=0;dropTarget=0;fillColor=none;points=[[0,0.5],[1,0.5]];portConstraint=eastwest;" parent="31" vertex="1">
                    <mxGeometry y="184" width="220" height="301" as="geometry"/>
                </mxCell>
                <mxCell id="35" value="- name: String&lt;br&gt;-age: int&lt;br&gt;- gender: String&lt;br&gt;-height: int&lt;br&gt;-weight: int&lt;br&gt;-appearance: String&lt;br&gt;- id: int&lt;br&gt;- dateOfBirth: Date&lt;br&gt;-medInfo: Medical&lt;br&gt;-familyMembers: Family&lt;br&gt;-currentLocation: Centre&lt;br&gt;-relationships: String&lt;br&gt;-minor: boolean" style="shape=partialRectangle;html=1;whiteSpace=wrap;connectable=0;overflow=hidden;fillColor=none;top=0;left=0;bottom=0;right=0;pointerEvents=1;" parent="34" vertex="1">
                    <mxGeometry width="220" height="301" as="geometry">
                        <mxRectangle width="220" height="301" as="alternateBounds"/>
                    </mxGeometry>
                </mxCell>
                <mxCell id="36" value="" style="shape=tableRow;horizontal=0;startSize=0;swimlaneHead=0;swimlaneBody=0;top=0;left=0;bottom=0;right=0;collapsible=0;dropTarget=0;fillColor=none;points=[[0,0.5],[1,0.5]];portConstraint=eastwest;" parent="31" vertex="1">
                    <mxGeometry y="485" width="220" height="435" as="geometry"/>
                </mxCell>
                <mxCell id="37" value="&lt;font style=&quot;font-size: 8px;&quot;&gt;+ Individual()&lt;br&gt;+ Individual(name: String, gender: string, id: int)&lt;br&gt;+ getName(): String&lt;br&gt;+ isMinor(): boolean&lt;br&gt;+ setMinor(minor: boolean): void&lt;br&gt;+ getGender(): String&lt;br&gt;+ getWeight(): float&lt;br&gt;+ getHeight(): float&lt;br&gt;+ getAppearance(): String&lt;br style=&quot;border-color: var(--border-color);&quot;&gt;+ getLocation(): Centre&lt;br&gt;+ getId(): int&lt;br&gt;+ getAge(): int&lt;br&gt;+ getDateOfBirth(): Date&lt;br&gt;+ getMedInfo(): Medical&lt;br&gt;+getFamMembers(): Family&lt;br&gt;+ setName(name: String): void&lt;br&gt;+ setGender(gender: String): void&lt;br&gt;+ setAppearance(appearance: String): void&lt;br&gt;+ setHeight(height: int): void&lt;br&gt;+ setWeight(weight: int): void&lt;br&gt;+ setId(id: int): void&lt;br&gt;+ setAge(age: int): void&lt;br&gt;+ setDateOfBirth(date: Date): void&lt;br&gt;+ setmedInfo(injuries: List&amp;lt;String&amp;gt;, Supplies: List&amp;lt;String&amp;gt;, treatment: List&amp;lt;Strings&amp;gt;): void&lt;br&gt;+setFamMembers(members: List&amp;lt;String&amp;gt;): void&lt;br&gt;&lt;br&gt;&lt;/font&gt;" style="shape=partialRectangle;html=1;whiteSpace=wrap;connectable=0;overflow=hidden;fillColor=none;top=0;left=0;bottom=0;right=0;pointerEvents=1;" parent="36" vertex="1">
                    <mxGeometry width="220" height="435" as="geometry">
                        <mxRectangle width="220" height="435" as="alternateBounds"/>
                    </mxGeometry>
                </mxCell>
                <mxCell id="39" value="Potential Classes:&lt;br&gt;Individual&lt;br&gt;Centre&lt;br&gt;Medical&lt;br&gt;Family&lt;br&gt;Social Worker&lt;br&gt;Supplies&lt;br&gt;CentreLog" style="text;html=1;strokeColor=#6F0000;fillColor=#a20025;align=center;verticalAlign=middle;whiteSpace=wrap;rounded=0;fontColor=#ffffff;" parent="1" vertex="1">
                    <mxGeometry x="1380" y="290" width="150" height="130" as="geometry"/>
                </mxCell>
                <mxCell id="106" style="edgeStyle=none;html=1;endArrow=none;endFill=0;exitX=1;exitY=0.5;exitDx=0;exitDy=0;" edge="1" parent="1" source="107" target="85">
                    <mxGeometry relative="1" as="geometry"/>
                </mxCell>
                <mxCell id="40" value="" style="shape=table;startSize=0;container=1;collapsible=0;childLayout=tableLayout;" parent="1" vertex="1">
                    <mxGeometry x="700" y="400" width="270" height="790" as="geometry"/>
                </mxCell>
                <mxCell id="41" value="" style="shape=tableRow;horizontal=0;startSize=0;swimlaneHead=0;swimlaneBody=0;top=0;left=0;bottom=0;right=0;collapsible=0;dropTarget=0;fillColor=none;points=[[0,0.5],[1,0.5]];portConstraint=eastwest;" parent="40" vertex="1">
                    <mxGeometry width="270" height="264" as="geometry"/>
                </mxCell>
                <mxCell id="42" value="&lt;b&gt;Centre&lt;/b&gt;" style="shape=partialRectangle;html=1;whiteSpace=wrap;connectable=0;overflow=hidden;fillColor=none;top=0;left=0;bottom=0;right=0;pointerEvents=1;" parent="41" vertex="1">
                    <mxGeometry width="270" height="264" as="geometry">
                        <mxRectangle width="270" height="264" as="alternateBounds"/>
                    </mxGeometry>
                </mxCell>
                <mxCell id="43" value="" style="shape=tableRow;horizontal=0;startSize=0;swimlaneHead=0;swimlaneBody=0;top=0;left=0;bottom=0;right=0;collapsible=0;dropTarget=0;fillColor=none;points=[[0,0.5],[1,0.5]];portConstraint=eastwest;" parent="40" vertex="1">
                    <mxGeometry y="264" width="270" height="262" as="geometry"/>
                </mxCell>
                <mxCell id="44" value="- centreName: String&lt;br&gt;- centreAddress: String&lt;br&gt;- centreOccupants:&amp;nbsp;List &amp;lt;&amp;nbsp;Individual &amp;gt;&lt;br&gt;-centreWorkers: List &amp;lt;SocialWorker&amp;gt;&lt;br&gt;-suppliesList: List &amp;lt;Supplies&amp;gt;&lt;br&gt;-centreLogs: List &amp;lt;CentreLog&amp;gt;" style="shape=partialRectangle;html=1;whiteSpace=wrap;connectable=0;overflow=hidden;fillColor=none;top=0;left=0;bottom=0;right=0;pointerEvents=1;" parent="43" vertex="1">
                    <mxGeometry width="270" height="262" as="geometry">
                        <mxRectangle width="270" height="262" as="alternateBounds"/>
                    </mxGeometry>
                </mxCell>
                <mxCell id="45" value="" style="shape=tableRow;horizontal=0;startSize=0;swimlaneHead=0;swimlaneBody=0;top=0;left=0;bottom=0;right=0;collapsible=0;dropTarget=0;fillColor=none;points=[[0,0.5],[1,0.5]];portConstraint=eastwest;" parent="40" vertex="1">
                    <mxGeometry y="526" width="270" height="264" as="geometry"/>
                </mxCell>
                <mxCell id="46" value="&lt;font style=&quot;&quot;&gt;&lt;font style=&quot;font-size: 11px;&quot;&gt;+ Centre()&lt;br&gt;+ Centre(centreName: String, centreAddress: String)&lt;br&gt;+ getCentreName(): String&lt;br&gt;+ setCentreName(centreName: String): void&lt;br&gt;+ getCentreAddress(): String&lt;br&gt;+ setCentreAddress(centreAddress: String): void&lt;br&gt;+ getOccupants():&amp;nbsp;&lt;font style=&quot;&quot;&gt;List &amp;lt;&amp;nbsp;Individual &amp;gt;&lt;/font&gt;&lt;br&gt;+ addOccupants(indiv: Individual): void&lt;br&gt;+ setOccupants(indivList:&amp;nbsp;&lt;font style=&quot;&quot;&gt;List &amp;lt;&amp;nbsp;Individual &amp;gt;&lt;/font&gt;): void&lt;br&gt;&lt;span style=&quot;border-color: var(--border-color);&quot;&gt;+ getWorkers():&amp;nbsp;&lt;/span&gt;&lt;font style=&quot;border-color: var(--border-color);&quot;&gt;List &amp;lt;&amp;nbsp;&lt;font style=&quot;&quot;&gt;SocialWorker&lt;/font&gt;&amp;nbsp;&amp;gt;&lt;/font&gt;&lt;br style=&quot;border-color: var(--border-color);&quot;&gt;&lt;span style=&quot;border-color: var(--border-color);&quot;&gt;+ addWorker(indiv:&amp;nbsp;&lt;font style=&quot;&quot;&gt;SocialWorker&lt;/font&gt;): void&lt;br style=&quot;border-color: var(--border-color);&quot;&gt;&lt;/span&gt;&lt;span style=&quot;border-color: var(--border-color);&quot;&gt;+ setWorkers(indivList:&amp;nbsp;&lt;/span&gt;&lt;font style=&quot;border-color: var(--border-color);&quot;&gt;List &amp;lt;&amp;nbsp;&lt;font style=&quot;&quot;&gt;SocialWorker&lt;/font&gt;&amp;nbsp;&amp;gt;&lt;/font&gt;&lt;span style=&quot;border-color: var(--border-color);&quot;&gt;): void&lt;br&gt;+ getSuppliesList(): List&amp;lt;&lt;span style=&quot;font-size: 12px;&quot;&gt;&amp;nbsp;Supplies&amp;nbsp;&lt;/span&gt;&amp;gt;&lt;br style=&quot;border-color: var(--border-color);&quot;&gt;&lt;/span&gt;+ setSuppliesUsed(&lt;span style=&quot;font-size: 12px;&quot;&gt;suppliesList&lt;/span&gt;: List&amp;lt;&lt;span style=&quot;font-size: 12px;&quot;&gt;&amp;nbsp;Supplies&amp;nbsp;&lt;/span&gt;&amp;gt;): void&lt;br&gt;&lt;span style=&quot;border-color: var(--border-color);&quot;&gt;+ getCentreLogs():&lt;span style=&quot;border-color: var(--border-color); font-size: 12px;&quot;&gt;&amp;nbsp;List &amp;lt;CentreLog&amp;gt;&amp;nbsp;&lt;/span&gt;&lt;br style=&quot;border-color: var(--border-color);&quot;&gt;&lt;/span&gt;+ setCentreLogs(&lt;span style=&quot;border-color: var(--border-color); font-size: 12px;&quot;&gt;centreLogs&lt;/span&gt;:&amp;nbsp;&lt;span style=&quot;font-size: 12px;&quot;&gt;&amp;nbsp;List &amp;lt;CentreLog&amp;gt;&lt;/span&gt;): void&lt;br style=&quot;border-color: var(--border-color);&quot;&gt;&lt;br&gt;&lt;/font&gt;&lt;span style=&quot;font-size: 11px;&quot;&gt;&lt;br&gt;&lt;/span&gt;&lt;/font&gt;" style="shape=partialRectangle;html=1;whiteSpace=wrap;connectable=0;overflow=hidden;fillColor=none;top=0;left=0;bottom=0;right=0;pointerEvents=1;" parent="45" vertex="1">
                    <mxGeometry width="270" height="264" as="geometry">
                        <mxRectangle width="270" height="264" as="alternateBounds"/>
                    </mxGeometry>
                </mxCell>
                <mxCell id="47" value="" style="shape=table;startSize=0;container=1;collapsible=0;childLayout=tableLayout;fontSize=11;" parent="1" vertex="1">
                    <mxGeometry x="710" y="-350" width="340" height="390" as="geometry"/>
                </mxCell>
                <mxCell id="48" value="" style="shape=tableRow;horizontal=0;startSize=0;swimlaneHead=0;swimlaneBody=0;top=0;left=0;bottom=0;right=0;collapsible=0;dropTarget=0;fillColor=none;points=[[0,0.5],[1,0.5]];portConstraint=eastwest;fontSize=11;" parent="47" vertex="1">
                    <mxGeometry width="340" height="131" as="geometry"/>
                </mxCell>
                <mxCell id="49" value="&lt;b&gt;Medical&lt;/b&gt;" style="shape=partialRectangle;html=1;whiteSpace=wrap;connectable=0;overflow=hidden;fillColor=none;top=0;left=0;bottom=0;right=0;pointerEvents=1;fontSize=11;" parent="48" vertex="1">
                    <mxGeometry width="340" height="131" as="geometry">
                        <mxRectangle width="340" height="131" as="alternateBounds"/>
                    </mxGeometry>
                </mxCell>
                <mxCell id="50" value="" style="shape=tableRow;horizontal=0;startSize=0;swimlaneHead=0;swimlaneBody=0;top=0;left=0;bottom=0;right=0;collapsible=0;dropTarget=0;fillColor=none;points=[[0,0.5],[1,0.5]];portConstraint=eastwest;fontSize=11;" parent="47" vertex="1">
                    <mxGeometry y="131" width="340" height="128" as="geometry"/>
                </mxCell>
                <mxCell id="51" value="-&amp;nbsp; injuries: List&amp;lt;String&amp;gt;&lt;br&gt;- treatment: List&amp;lt;String&amp;gt;&lt;br&gt;&lt;span style=&quot;font-size: 10px;&quot;&gt;-dateOfCare: Date&lt;/span&gt;" style="shape=partialRectangle;html=1;whiteSpace=wrap;connectable=0;overflow=hidden;fillColor=none;top=0;left=0;bottom=0;right=0;pointerEvents=1;fontSize=11;" parent="50" vertex="1">
                    <mxGeometry width="340" height="128" as="geometry">
                        <mxRectangle width="340" height="128" as="alternateBounds"/>
                    </mxGeometry>
                </mxCell>
                <mxCell id="52" value="" style="shape=tableRow;horizontal=0;startSize=0;swimlaneHead=0;swimlaneBody=0;top=0;left=0;bottom=0;right=0;collapsible=0;dropTarget=0;fillColor=none;points=[[0,0.5],[1,0.5]];portConstraint=eastwest;fontSize=11;" parent="47" vertex="1">
                    <mxGeometry y="259" width="340" height="131" as="geometry"/>
                </mxCell>
                <mxCell id="53" value="+ Medical():&lt;br&gt;+ Medical(injuries: List&amp;lt;String&amp;gt;, treatment: List&amp;lt;String&amp;gt;)&lt;br&gt;+ getInjuries(): List&amp;lt;String&amp;gt;&lt;br&gt;+ getTreatment(): List&amp;lt;String&amp;gt;&lt;br&gt;+setInjuries(injuries: List&amp;lt;String&amp;gt;): void&lt;br&gt;+setTreatment(treatment: List&amp;lt;String&amp;gt;): void" style="shape=partialRectangle;html=1;whiteSpace=wrap;connectable=0;overflow=hidden;fillColor=none;top=0;left=0;bottom=0;right=0;pointerEvents=1;fontSize=11;" parent="52" vertex="1">
                    <mxGeometry width="340" height="131" as="geometry">
                        <mxRectangle width="340" height="131" as="alternateBounds"/>
                    </mxGeometry>
                </mxCell>
                <mxCell id="59" value="" style="shape=table;startSize=0;container=1;collapsible=0;childLayout=tableLayout;fontSize=10;" parent="1" vertex="1">
                    <mxGeometry x="725" y="-700" width="220" height="240" as="geometry"/>
                </mxCell>
                <mxCell id="60" value="" style="shape=tableRow;horizontal=0;startSize=0;swimlaneHead=0;swimlaneBody=0;top=0;left=0;bottom=0;right=0;collapsible=0;dropTarget=0;fillColor=none;points=[[0,0.5],[1,0.5]];portConstraint=eastwest;fontSize=10;" parent="59" vertex="1">
                    <mxGeometry width="220" height="80" as="geometry"/>
                </mxCell>
                <mxCell id="61" value="&lt;b&gt;Family&lt;/b&gt;" style="shape=partialRectangle;html=1;whiteSpace=wrap;connectable=0;overflow=hidden;fillColor=none;top=0;left=0;bottom=0;right=0;pointerEvents=1;fontSize=10;" parent="60" vertex="1">
                    <mxGeometry width="220" height="80" as="geometry">
                        <mxRectangle width="220" height="80" as="alternateBounds"/>
                    </mxGeometry>
                </mxCell>
                <mxCell id="62" value="" style="shape=tableRow;horizontal=0;startSize=0;swimlaneHead=0;swimlaneBody=0;top=0;left=0;bottom=0;right=0;collapsible=0;dropTarget=0;fillColor=none;points=[[0,0.5],[1,0.5]];portConstraint=eastwest;fontSize=10;" parent="59" vertex="1">
                    <mxGeometry y="80" width="220" height="80" as="geometry"/>
                </mxCell>
                <mxCell id="63" value="- members: List&amp;lt;Individual&amp;gt;&lt;br&gt;-id: Int" style="shape=partialRectangle;html=1;whiteSpace=wrap;connectable=0;overflow=hidden;fillColor=none;top=0;left=0;bottom=0;right=0;pointerEvents=1;fontSize=10;" parent="62" vertex="1">
                    <mxGeometry width="220" height="80" as="geometry">
                        <mxRectangle width="220" height="80" as="alternateBounds"/>
                    </mxGeometry>
                </mxCell>
                <mxCell id="64" value="" style="shape=tableRow;horizontal=0;startSize=0;swimlaneHead=0;swimlaneBody=0;top=0;left=0;bottom=0;right=0;collapsible=0;dropTarget=0;fillColor=none;points=[[0,0.5],[1,0.5]];portConstraint=eastwest;fontSize=10;" parent="59" vertex="1">
                    <mxGeometry y="160" width="220" height="80" as="geometry"/>
                </mxCell>
                <mxCell id="65" value="+ Family()&lt;br&gt;+ Family(members: List&amp;lt;Indivudal&amp;gt;, id: int)&lt;br&gt;+getMembers(): List&amp;lt;&amp;nbsp;Individual &amp;gt;&lt;br&gt;+setMembers(members: List&amp;lt;&amp;nbsp;Individual &amp;gt;): void&lt;br&gt;+ getId(): int&lt;br&gt;+ setId(id: int): void&amp;nbsp;" style="shape=partialRectangle;html=1;whiteSpace=wrap;connectable=0;overflow=hidden;fillColor=none;top=0;left=0;bottom=0;right=0;pointerEvents=1;fontSize=10;" parent="64" vertex="1">
                    <mxGeometry width="220" height="80" as="geometry">
                        <mxRectangle width="220" height="80" as="alternateBounds"/>
                    </mxGeometry>
                </mxCell>
                <mxCell id="66" value="" style="shape=table;startSize=0;container=1;collapsible=0;childLayout=tableLayout;fontSize=10;" parent="1" vertex="1">
                    <mxGeometry x="1270" y="660" width="410" height="430" as="geometry"/>
                </mxCell>
                <mxCell id="67" value="" style="shape=tableRow;horizontal=0;startSize=0;swimlaneHead=0;swimlaneBody=0;top=0;left=0;bottom=0;right=0;collapsible=0;dropTarget=0;fillColor=none;points=[[0,0.5],[1,0.5]];portConstraint=eastwest;fontSize=10;" parent="66" vertex="1">
                    <mxGeometry width="410" height="141" as="geometry"/>
                </mxCell>
                <mxCell id="68" value="&lt;b&gt;Social Worker&lt;/b&gt;" style="shape=partialRectangle;html=1;whiteSpace=wrap;connectable=0;overflow=hidden;fillColor=none;top=0;left=0;bottom=0;right=0;pointerEvents=1;fontSize=10;" parent="67" vertex="1">
                    <mxGeometry width="410" height="141" as="geometry">
                        <mxRectangle width="410" height="141" as="alternateBounds"/>
                    </mxGeometry>
                </mxCell>
                <mxCell id="69" value="" style="shape=tableRow;horizontal=0;startSize=0;swimlaneHead=0;swimlaneBody=0;top=0;left=0;bottom=0;right=0;collapsible=0;dropTarget=0;fillColor=none;points=[[0,0.5],[1,0.5]];portConstraint=eastwest;fontSize=10;" parent="66" vertex="1">
                    <mxGeometry y="141" width="410" height="148" as="geometry"/>
                </mxCell>
                <mxCell id="70" value="-id: int&lt;br&gt;-name: String&lt;br&gt;-assignedIndividuals: List &amp;lt;Individual&amp;gt;" style="shape=partialRectangle;html=1;whiteSpace=wrap;connectable=0;overflow=hidden;fillColor=none;top=0;left=0;bottom=0;right=0;pointerEvents=1;fontSize=10;" parent="69" vertex="1">
                    <mxGeometry width="410" height="148" as="geometry">
                        <mxRectangle width="410" height="148" as="alternateBounds"/>
                    </mxGeometry>
                </mxCell>
                <mxCell id="71" value="" style="shape=tableRow;horizontal=0;startSize=0;swimlaneHead=0;swimlaneBody=0;top=0;left=0;bottom=0;right=0;collapsible=0;dropTarget=0;fillColor=none;points=[[0,0.5],[1,0.5]];portConstraint=eastwest;fontSize=10;" parent="66" vertex="1">
                    <mxGeometry y="289" width="410" height="141" as="geometry"/>
                </mxCell>
                <mxCell id="72" value="+SocialWorker(name: String, id: int, assignedIndividuals: List&amp;lt;String&amp;gt;)&lt;br&gt;+setName(name: String): void&lt;br&gt;+setId(id: int): void&lt;br&gt;+getName(): String&amp;nbsp;&lt;br&gt;+ getId(): int&lt;br style=&quot;border-color: var(--border-color);&quot;&gt;+addAssignedIndividial(i:Individual):void&lt;br&gt;+setAssignedIndividuals(assignedIndividuals:List &amp;lt;Individual&amp;gt;): void&lt;br&gt;+getAssignedIndividuals(): List &amp;lt;Individual&amp;gt;" style="shape=partialRectangle;html=1;whiteSpace=wrap;connectable=0;overflow=hidden;fillColor=none;top=0;left=0;bottom=0;right=0;pointerEvents=1;fontSize=10;" parent="71" vertex="1">
                    <mxGeometry width="410" height="141" as="geometry">
                        <mxRectangle width="410" height="141" as="alternateBounds"/>
                    </mxGeometry>
                </mxCell>
                <mxCell id="80" value="" style="shape=table;startSize=0;container=1;collapsible=0;childLayout=tableLayout;fontSize=10;" parent="1" vertex="1">
                    <mxGeometry x="1130" y="-350" width="210" height="370" as="geometry"/>
                </mxCell>
                <mxCell id="81" value="" style="shape=tableRow;horizontal=0;startSize=0;swimlaneHead=0;swimlaneBody=0;top=0;left=0;bottom=0;right=0;collapsible=0;dropTarget=0;fillColor=none;points=[[0,0.5],[1,0.5]];portConstraint=eastwest;fontSize=10;" parent="80" vertex="1">
                    <mxGeometry width="210" height="124" as="geometry"/>
                </mxCell>
                <mxCell id="82" value="&lt;b&gt;Supplies&lt;/b&gt;" style="shape=partialRectangle;html=1;whiteSpace=wrap;connectable=0;overflow=hidden;fillColor=none;top=0;left=0;bottom=0;right=0;pointerEvents=1;fontSize=10;" parent="81" vertex="1">
                    <mxGeometry width="210" height="124" as="geometry">
                        <mxRectangle width="210" height="124" as="alternateBounds"/>
                    </mxGeometry>
                </mxCell>
                <mxCell id="83" value="" style="shape=tableRow;horizontal=0;startSize=0;swimlaneHead=0;swimlaneBody=0;top=0;left=0;bottom=0;right=0;collapsible=0;dropTarget=0;fillColor=none;points=[[0,0.5],[1,0.5]];portConstraint=eastwest;fontSize=10;" parent="80" vertex="1">
                    <mxGeometry y="124" width="210" height="122" as="geometry"/>
                </mxCell>
                <mxCell id="84" value="-id: int&lt;br&gt;-type: String&lt;br&gt;-quantity: int&lt;br&gt;" style="shape=partialRectangle;html=1;whiteSpace=wrap;connectable=0;overflow=hidden;fillColor=none;top=0;left=0;bottom=0;right=0;pointerEvents=1;fontSize=10;" parent="83" vertex="1">
                    <mxGeometry width="210" height="122" as="geometry">
                        <mxRectangle width="210" height="122" as="alternateBounds"/>
                    </mxGeometry>
                </mxCell>
                <mxCell id="85" value="" style="shape=tableRow;horizontal=0;startSize=0;swimlaneHead=0;swimlaneBody=0;top=0;left=0;bottom=0;right=0;collapsible=0;dropTarget=0;fillColor=none;points=[[0,0.5],[1,0.5]];portConstraint=eastwest;fontSize=10;" parent="80" vertex="1">
                    <mxGeometry y="246" width="210" height="124" as="geometry"/>
                </mxCell>
                <mxCell id="86" value="Supplies(id:int,type:String,quantity:int)&lt;br&gt;+setType(name: String): void&lt;br style=&quot;border-color: var(--border-color);&quot;&gt;+setId(id: int): void&lt;br style=&quot;border-color: var(--border-color);&quot;&gt;+setType(type: String): void&lt;br style=&quot;border-color: var(--border-color);&quot;&gt;+ getId(): int&lt;br&gt;+setQuantity(quantity: int): void&lt;br style=&quot;border-color: var(--border-color);&quot;&gt;+ getQuantity(): void" style="shape=partialRectangle;html=1;whiteSpace=wrap;connectable=0;overflow=hidden;fillColor=none;top=0;left=0;bottom=0;right=0;pointerEvents=1;fontSize=10;" parent="85" vertex="1">
                    <mxGeometry width="210" height="124" as="geometry">
                        <mxRectangle width="210" height="124" as="alternateBounds"/>
                    </mxGeometry>
                </mxCell>
                <mxCell id="87" style="edgeStyle=none;html=1;entryX=0.002;entryY=0.381;entryDx=0;entryDy=0;fontSize=11;endArrow=none;endFill=0;exitX=1;exitY=0.5;exitDx=0;exitDy=0;entryPerimeter=0;" parent="1" source="90" target="67" edge="1">
                    <mxGeometry relative="1" as="geometry"/>
                </mxCell>
                <mxCell id="88" value="&lt;b&gt;1&lt;/b&gt;" style="text;html=1;strokeColor=none;fillColor=none;align=center;verticalAlign=middle;whiteSpace=wrap;rounded=0;fontSize=11;" parent="1" vertex="1">
                    <mxGeometry x="950" y="690" width="60" height="30" as="geometry"/>
                </mxCell>
                <mxCell id="89" value="&lt;b&gt;1..*&lt;/b&gt;" style="text;html=1;strokeColor=none;fillColor=none;align=center;verticalAlign=middle;whiteSpace=wrap;rounded=0;fontSize=11;" parent="1" vertex="1">
                    <mxGeometry x="1215" y="690" width="60" height="30" as="geometry"/>
                </mxCell>
                <mxCell id="90" value="" style="rhombus;whiteSpace=wrap;html=1;fontSize=11;" parent="1" vertex="1">
                    <mxGeometry x="940" y="700" width="30" height="30" as="geometry"/>
                </mxCell>
                <mxCell id="91" value="" style="shape=table;startSize=0;container=1;collapsible=0;childLayout=tableLayout;fontSize=10;" parent="1" vertex="1">
                    <mxGeometry x="300" y="355" width="330" height="420" as="geometry"/>
                </mxCell>
                <mxCell id="92" value="" style="shape=tableRow;horizontal=0;startSize=0;swimlaneHead=0;swimlaneBody=0;top=0;left=0;bottom=0;right=0;collapsible=0;dropTarget=0;fillColor=none;points=[[0,0.5],[1,0.5]];portConstraint=eastwest;fontSize=10;" parent="91" vertex="1">
                    <mxGeometry width="330" height="138" as="geometry"/>
                </mxCell>
                <mxCell id="93" value="&lt;b&gt;CentreLog&lt;/b&gt;" style="shape=partialRectangle;html=1;whiteSpace=wrap;connectable=0;overflow=hidden;fillColor=none;top=0;left=0;bottom=0;right=0;pointerEvents=1;fontSize=10;" parent="92" vertex="1">
                    <mxGeometry width="330" height="138" as="geometry">
                        <mxRectangle width="330" height="138" as="alternateBounds"/>
                    </mxGeometry>
                </mxCell>
                <mxCell id="94" value="" style="shape=tableRow;horizontal=0;startSize=0;swimlaneHead=0;swimlaneBody=0;top=0;left=0;bottom=0;right=0;collapsible=0;dropTarget=0;fillColor=none;points=[[0,0.5],[1,0.5]];portConstraint=eastwest;fontSize=10;" parent="91" vertex="1">
                    <mxGeometry y="138" width="330" height="144" as="geometry"/>
                </mxCell>
                <mxCell id="95" value="&lt;span style=&quot;font-size: 12px;&quot;&gt;-dateLogged: String&lt;/span&gt;&lt;br style=&quot;border-color: var(--border-color); font-size: 12px;&quot;&gt;&lt;span style=&quot;border-color: var(--border-color); font-size: 12px;&quot;&gt;-individualLogged: Individual&lt;br&gt;-reason: String&amp;nbsp;&lt;br&gt;-id&lt;br&gt;&lt;/span&gt;" style="shape=partialRectangle;html=1;whiteSpace=wrap;connectable=0;overflow=hidden;fillColor=none;top=0;left=0;bottom=0;right=0;pointerEvents=1;fontSize=10;" parent="94" vertex="1">
                    <mxGeometry width="330" height="144" as="geometry">
                        <mxRectangle width="330" height="144" as="alternateBounds"/>
                    </mxGeometry>
                </mxCell>
                <mxCell id="96" value="" style="shape=tableRow;horizontal=0;startSize=0;swimlaneHead=0;swimlaneBody=0;top=0;left=0;bottom=0;right=0;collapsible=0;dropTarget=0;fillColor=none;points=[[0,0.5],[1,0.5]];portConstraint=eastwest;fontSize=10;" parent="91" vertex="1">
                    <mxGeometry y="282" width="330" height="138" as="geometry"/>
                </mxCell>
                <mxCell id="97" value="&lt;font style=&quot;&quot;&gt;&lt;font style=&quot;font-size: 11px;&quot;&gt;+&lt;/font&gt;&lt;font style=&quot;font-size: 10px;&quot;&gt;CentreLog(dateLogged: Date, individualLogged: individual, id: int)&lt;br&gt;+setDateLogged(log: String): void&lt;br&gt;+getDateLogged(): String&lt;br&gt;+setReason(reason: String): void&lt;br style=&quot;border-color: var(--border-color);&quot;&gt;+getReason(): String&lt;br&gt;+ getId(): int&lt;br&gt;+ setID(id: int): void&lt;br&gt;+getLoggedIndividual(): Individual&lt;br&gt;+setLoggedIndividual(individualLogged: Individual): void&lt;br style=&quot;border-color: var(--border-color);&quot;&gt;&lt;/font&gt;&lt;br style=&quot;border-color: var(--border-color); font-size: 8px;&quot;&gt;&lt;/font&gt;" style="shape=partialRectangle;html=1;whiteSpace=wrap;connectable=0;overflow=hidden;fillColor=none;top=0;left=0;bottom=0;right=0;pointerEvents=1;fontSize=10;" parent="96" vertex="1">
                    <mxGeometry width="330" height="138" as="geometry">
                        <mxRectangle width="330" height="138" as="alternateBounds"/>
                    </mxGeometry>
                </mxCell>
                <mxCell id="99" style="edgeStyle=none;html=1;endArrow=none;endFill=0;exitX=0;exitY=0.5;exitDx=0;exitDy=0;entryX=0.5;entryY=1;entryDx=0;entryDy=0;" edge="1" parent="1" source="100" target="91">
                    <mxGeometry relative="1" as="geometry">
                        <mxPoint x="476" y="778" as="targetPoint"/>
                    </mxGeometry>
                </mxCell>
                <mxCell id="100" value="" style="rhombus;whiteSpace=wrap;html=1;fontSize=11;" vertex="1" parent="1">
                    <mxGeometry x="700" y="880" width="30" height="30" as="geometry"/>
                </mxCell>
                <mxCell id="103" value="" style="rhombus;whiteSpace=wrap;html=1;fontSize=11;" vertex="1" parent="1">
                    <mxGeometry x="450" y="120" width="30" height="30" as="geometry"/>
                </mxCell>
                <mxCell id="107" value="" style="rhombus;whiteSpace=wrap;html=1;fontSize=11;" vertex="1" parent="1">
                    <mxGeometry x="940" y="580" width="30" height="30" as="geometry"/>
                </mxCell>
                <mxCell id="112" style="edgeStyle=none;html=1;startArrow=none;startFill=0;endArrow=none;endFill=0;entryX=0.5;entryY=0;entryDx=0;entryDy=0;" edge="1" parent="1" source="36" target="113">
                    <mxGeometry relative="1" as="geometry"/>
                </mxCell>
                <mxCell id="113" value="" style="rhombus;whiteSpace=wrap;html=1;" vertex="1" parent="1">
                    <mxGeometry x="1380" y="660" width="30" height="30" as="geometry"/>
                </mxCell>
                <mxCell id="115" value="" style="endArrow=none;html=1;exitX=1;exitY=0.5;exitDx=0;exitDy=0;entryX=0;entryY=0.565;entryDx=0;entryDy=0;entryPerimeter=0;" edge="1" parent="1" source="131" target="48">
                    <mxGeometry width="50" height="50" relative="1" as="geometry">
                        <mxPoint x="660" y="-230" as="sourcePoint"/>
                        <mxPoint x="710" y="-280" as="targetPoint"/>
                    </mxGeometry>
                </mxCell>
                <mxCell id="116" value="" style="endArrow=none;html=1;exitX=1;exitY=0.5;exitDx=0;exitDy=0;entryX=-0.002;entryY=0.52;entryDx=0;entryDy=0;entryPerimeter=0;" edge="1" parent="1" source="132" target="59">
                    <mxGeometry width="50" height="50" relative="1" as="geometry">
                        <mxPoint x="580" y="-580" as="sourcePoint"/>
                        <mxPoint x="720" y="-575" as="targetPoint"/>
                    </mxGeometry>
                </mxCell>
                <mxCell id="117" value="&lt;b&gt;1..*&lt;/b&gt;" style="text;html=1;strokeColor=none;fillColor=none;align=center;verticalAlign=middle;whiteSpace=wrap;rounded=0;" vertex="1" parent="1">
                    <mxGeometry x="420" y="775" width="60" height="30" as="geometry"/>
                </mxCell>
                <mxCell id="118" value="&lt;b&gt;1&lt;/b&gt;" style="text;html=1;align=center;verticalAlign=middle;resizable=0;points=[];autosize=1;strokeColor=none;fillColor=none;" vertex="1" parent="1">
                    <mxGeometry x="670" y="890" width="30" height="30" as="geometry"/>
                </mxCell>
                <mxCell id="119" value="&lt;b&gt;1&lt;/b&gt;" style="text;html=1;strokeColor=none;fillColor=none;align=center;verticalAlign=middle;whiteSpace=wrap;rounded=0;" vertex="1" parent="1">
                    <mxGeometry x="420" y="140" width="60" height="30" as="geometry"/>
                </mxCell>
                <mxCell id="120" value="&lt;b&gt;1&lt;/b&gt;" style="text;html=1;align=center;verticalAlign=middle;resizable=0;points=[];autosize=1;strokeColor=none;fillColor=none;" vertex="1" parent="1">
                    <mxGeometry x="435" y="325" width="30" height="30" as="geometry"/>
                </mxCell>
                <mxCell id="121" value="&lt;b&gt;1&lt;/b&gt;" style="text;html=1;align=center;verticalAlign=middle;resizable=0;points=[];autosize=1;strokeColor=none;fillColor=none;" vertex="1" parent="1">
                    <mxGeometry x="970" y="570" width="30" height="30" as="geometry"/>
                </mxCell>
                <mxCell id="122" value="&lt;b&gt;1..*&lt;/b&gt;" style="text;html=1;align=center;verticalAlign=middle;resizable=0;points=[];autosize=1;strokeColor=none;fillColor=none;" vertex="1" parent="1">
                    <mxGeometry x="1200" y="20" width="40" height="30" as="geometry"/>
                </mxCell>
                <mxCell id="123" value="&lt;b&gt;1&lt;/b&gt;" style="text;html=1;align=center;verticalAlign=middle;resizable=0;points=[];autosize=1;strokeColor=none;fillColor=none;" vertex="1" parent="1">
                    <mxGeometry x="1395" y="630" width="30" height="30" as="geometry"/>
                </mxCell>
                <mxCell id="124" value="&lt;b&gt;1..*&lt;/b&gt;" style="text;html=1;align=center;verticalAlign=middle;resizable=0;points=[];autosize=1;strokeColor=none;fillColor=none;" vertex="1" parent="1">
                    <mxGeometry x="575" y="-30" width="40" height="30" as="geometry"/>
                </mxCell>
                <mxCell id="125" value="&lt;b&gt;1..*&lt;/b&gt;" style="text;html=1;align=center;verticalAlign=middle;resizable=0;points=[];autosize=1;strokeColor=none;fillColor=none;" vertex="1" parent="1">
                    <mxGeometry x="570" y="-605" width="40" height="30" as="geometry"/>
                </mxCell>
                <mxCell id="126" value="&lt;b&gt;1&lt;/b&gt;" style="text;html=1;align=center;verticalAlign=middle;resizable=0;points=[];autosize=1;strokeColor=none;fillColor=none;" vertex="1" parent="1">
                    <mxGeometry x="695" y="-605" width="30" height="30" as="geometry"/>
                </mxCell>
                <mxCell id="127" value="&lt;b&gt;1&lt;/b&gt;" style="text;html=1;align=center;verticalAlign=middle;resizable=0;points=[];autosize=1;strokeColor=none;fillColor=none;" vertex="1" parent="1">
                    <mxGeometry x="575" y="-300" width="30" height="30" as="geometry"/>
                </mxCell>
                <mxCell id="128" value="&lt;b&gt;1&lt;/b&gt;" style="text;html=1;align=center;verticalAlign=middle;resizable=0;points=[];autosize=1;strokeColor=none;fillColor=none;" vertex="1" parent="1">
                    <mxGeometry x="680" y="-300" width="30" height="30" as="geometry"/>
                </mxCell>
                <mxCell id="131" value="" style="rhombus;whiteSpace=wrap;html=1;fontSize=11;fillColor=#000000;" vertex="1" parent="1">
                    <mxGeometry x="550" y="-290" width="30" height="30" as="geometry"/>
                </mxCell>
                <mxCell id="132" value="" style="rhombus;whiteSpace=wrap;html=1;fontSize=11;fillColor=#000000;" vertex="1" parent="1">
                    <mxGeometry x="545" y="-590" width="30" height="30" as="geometry"/>
                </mxCell>
            </root>
        </mxGraphModel>
    </diagram>
</mxfile>